<svg width="8" height="12" viewBox="0 0 8 12" fill="none" xmlns="http://www.w3.org/2000/svg">
<path fill-rule="evenodd" clip-rule="evenodd" d="M3.74999 11.25C3.53576 11.25 3.33176 11.1584 3.18943 10.9983L0.189435 7.62327C-0.0857534 7.31369 -0.057868 6.83963 0.251719 6.56444C0.561306 6.28925 1.03536 6.31714 1.31055 6.62673L2.99999 8.52735L2.99999 1.5C2.99999 1.08579 3.33578 0.75 3.74999 0.75C4.16421 0.75 4.49999 1.08579 4.49999 1.5L4.49999 8.52735L6.18944 6.62673C6.46462 6.31714 6.93868 6.28925 7.24826 6.56444C7.55785 6.83963 7.58574 7.31369 7.31055 7.62327L4.31055 10.9983C4.16822 11.1584 3.96422 11.25 3.74999 11.25Z" fill="#E03C31"/>
</svg>
