<svg width="8" height="12" viewBox="0 0 8 12" fill="none" xmlns="http://www.w3.org/2000/svg">
<path fill-rule="evenodd" clip-rule="evenodd" d="M3.75001 0.750001C3.96424 0.750001 4.16824 0.841612 4.31057 1.00173L7.31056 4.37673C7.58575 4.68632 7.55787 5.16037 7.24828 5.43556C6.93869 5.71075 6.46464 5.68286 6.18945 5.37327L4.50001 3.47265L4.50001 10.5C4.50001 10.9142 4.16422 11.25 3.75001 11.25C3.33579 11.25 3.00001 10.9142 3.00001 10.5L3.00001 3.47265L1.31056 5.37327C1.03538 5.68286 0.561321 5.71075 0.251734 5.43556C-0.0578527 5.16037 -0.0857382 4.68631 0.18945 4.37673L3.18945 1.00173C3.33178 0.841611 3.53578 0.750001 3.75001 0.750001Z" fill="#07A35D"/>
</svg>
