<svg xmlns="http://www.w3.org/2000/svg" xmlns:v="https://svgstorm.com"
viewBox = "0 0 633 149"
width="633"
height="149">
<g fill="None" fill-opacity="0.0" stroke="#CC811E" stroke-opacity="0.21" stroke-width="0.3"><path d="
M 0.00 1.00 
C 6.33 1.00 12.67 1.00 19.00 1.00
C 18.96 1.00 19.00 0.00 19.00 0.00
L 0.00 0.00
L 0.00 1.00 Z"/>
</g>
<g fill="None" fill-opacity="0.0" stroke="#CD852F" stroke-opacity="0.07" stroke-width="0.3"><path d="
M 19.00 1.00 
C 67.67 1.00 116.33 1.00 165.00 1.00
C 164.96 1.00 165.00 0.00 165.00 0.00
L 19.00 0.00
C 19.00 0.00 18.96 1.00 19.00 1.00 Z"/>
</g>
<g fill="None" fill-opacity="0.0" stroke="#478039" stroke-opacity="0.07" stroke-width="0.3"><path d="
M 165.00 1.00 
C 169.67 1.00 174.33 1.00 179.00 1.00
C 178.96 1.00 179.00 0.00 179.00 0.00
L 165.00 0.00
C 165.00 0.00 164.96 1.00 165.00 1.00 Z"/>
</g>
<g fill="None" fill-opacity="0.0" stroke="#D2862D" stroke-opacity="0.07" stroke-width="0.3"><path d="
M 179.00 1.00 
C 182.33 1.00 185.67 1.00 189.00 1.00
C 188.85 0.95 189.00 0.00 189.00 0.00
L 179.00 0.00
C 179.00 0.00 178.96 1.00 179.00 1.00 Z"/>
</g>
<g fill="None" fill-opacity="0.0" stroke="#000000" stroke-opacity="0.00" stroke-width="0.3"><path d="
M 189.00 1.00 
C 190.63 1.00 192.38 0.83 194.00 1.00
C 197.24 1.35 200.61 3.09 203.00 5.00
C 203.30 5.24 204.00 5.00 204.00 5.00
C 213.30 9.55 221.83 22.76 229.00 30.00
C 231.07 31.79 233.12 34.14 235.00 36.00
C 238.66 39.63 242.87 42.91 246.00 47.00
C 246.74 47.96 247.08 48.30 248.00 49.00
C 253.65 53.32 265.27 62.45 268.00 69.00
C 269.45 80.68 254.23 81.93 249.75 73.25 C 245.27 64.57 236.59 61.63 230.75 54.25 C 224.91 46.86 218.63 42.04 211.75 35.25 C 204.88 28.46 200.27 20.74 190.32 17.68 C 180.38 14.62 165.68 16.30 154.00 16.00 C 142.32 15.70 128.26 16.14 116.00 16.00 C 103.74 15.86 90.57 16.07 78.00 16.00 C 65.43 15.93 51.68 16.05 39.00 16.00
C 41.70 23.00 49.80 26.82 56.00 29.00
C 75.96 32.24 96.79 27.01 117.00 29.00 C 137.21 30.99 158.73 26.92 179.00 29.00
C 195.02 30.65 203.60 49.65 215.75 59.25 C 227.90 68.84 237.70 83.53 250.00 93.00
C 248.39 96.70 245.34 100.49 242.00 103.00
C 236.19 109.54 225.52 106.88 216.00 107.00 C 206.48 107.12 195.69 107.44 186.00 107.00 C 176.31 106.56 165.64 108.28 156.00 107.00
C 139.53 104.80 131.07 84.11 119.00 76.00
C 115.28 74.79 109.92 76.35 106.00 76.00
C 102.81 76.17 100.38 74.36 98.00 73.00
C 87.69 67.13 79.68 56.01 71.70 48.30 C 63.72 40.60 59.30 45.64 50.00 44.00
C 30.89 40.64 15.57 15.66 2.00 3.00
C 1.51 2.54 0.63 2.19 0.00 2.00
L 0.00 149.00
L 217.00 149.00
C 238.19 117.80 263.36 88.52 286.00 58.00
C 297.68 69.31 306.28 83.22 316.00 96.00
C 327.38 85.53 336.23 70.58 346.00 58.00
C 371.41 85.85 394.80 118.25 417.00 149.00
L 633.00 149.00
L 633.00 3.00
C 626.06 9.10 620.91 14.49 614.25 21.25 C 607.58 28.00 602.79 32.36 595.75 39.75 C 588.72 47.15 572.36 42.13 564.00 46.00
C 559.43 48.74 557.10 55.88 552.25 59.25 C 547.40 62.62 543.88 67.51 539.00 71.00
C 535.44 73.54 532.74 75.51 528.00 76.00
C 524.08 76.40 518.71 74.76 515.00 76.00
C 501.49 82.90 495.25 104.70 478.00 107.00
C 469.23 108.17 459.89 106.95 451.00 107.00 C 442.11 107.05 431.82 107.92 423.00 107.00 C 414.18 106.08 403.40 109.51 395.00 107.00
C 389.67 105.41 387.61 96.34 384.00 93.00
C 387.11 91.27 388.92 87.67 392.00 86.00
C 408.91 69.09 425.49 48.12 444.00 34.00
C 445.37 32.61 446.16 31.89 448.00 31.00
C 450.68 29.70 452.97 29.21 456.00 29.00
C 475.97 27.64 496.02 30.52 516.00 29.00 C 535.98 27.48 557.13 31.66 577.00 29.00
C 578.16 28.85 580.85 28.38 582.00 28.00
C 586.55 25.15 591.81 21.81 595.00 17.00
C 573.00 15.05 547.14 16.16 525.00 16.00 C 502.86 15.84 473.90 15.93 453.00 16.00 C 432.10 16.07 425.72 34.41 411.75 45.75 C 397.78 57.09 388.91 70.14 376.00 82.00
C 371.83 78.83 368.07 74.52 366.00 70.00
C 365.56 65.64 374.10 61.30 376.75 57.75 C 379.41 54.21 385.39 48.76 389.00 46.00
C 389.96 45.26 390.30 44.92 391.00 44.00
C 396.22 37.17 403.76 29.88 410.25 24.25 C 416.74 18.61 422.39 8.72 430.00 5.00
C 430.40 4.80 431.00 5.00 431.00 5.00
C 432.73 2.23 436.91 1.32 440.00 1.00
C 440.97 0.90 442.02 1.00 443.00 1.00
C 443.25 0.73 443.00 0.00 443.00 0.00
L 189.00 0.00
C 189.00 0.00 188.85 0.95 189.00 1.00
M 340.00 34.00 
C 340.32 34.64 340.67 35.11 341.00 36.00
C 342.56 40.25 329.43 49.57 326.00 53.00
C 323.69 55.31 321.88 58.32 319.00 60.00
C 318.01 60.58 317.57 61.23 316.00 61.00
C 312.03 60.40 306.64 51.64 304.00 49.00
C 299.16 44.86 291.24 39.73 294.00 34.00
C 299.12 23.37 309.71 15.14 316.00 5.00
C 325.83 12.14 332.49 24.48 340.00 34.00 Z"/>
</g>
<g fill="None" fill-opacity="0.0" stroke="#D0842E" stroke-opacity="0.06" stroke-width="0.3"><path d="
M 443.00 1.00 
C 449.16 1.00 456.66 1.83 462.00 0.00
L 443.00 0.00
C 443.00 0.00 443.25 0.73 443.00 1.00 Z"/>
</g>
<g fill="None" fill-opacity="0.0" stroke="#CB7736" stroke-opacity="0.93" stroke-width="0.3"><path d="
M 443.00 1.00 
C 442.02 1.00 440.97 0.90 440.00 1.00
C 503.24 0.04 569.72 3.80 633.00 2.00
L 633.00 1.00
C 630.67 1.00 628.33 1.00 626.00 1.00
C 610.17 1.00 593.01 1.83 578.00 0.00
L 574.00 0.00
C 554.07 1.66 530.86 1.67 511.00 0.00
L 509.00 0.00
C 506.72 1.54 501.21 1.72 499.00 0.00
L 494.00 0.00
C 485.74 1.65 474.19 1.68 466.00 0.00
L 462.00 0.00
C 456.66 1.83 449.16 1.00 443.00 1.00 Z"/>
</g>
<g fill="None" fill-opacity="0.0" stroke="#CF832F" stroke-opacity="0.06" stroke-width="0.3"><path d="
M 494.00 0.00 
L 466.00 0.00
C 474.19 1.68 485.74 1.65 494.00 0.00 Z"/>
</g>
<g fill="None" fill-opacity="0.0" stroke="#D0822E" stroke-opacity="0.07" stroke-width="0.3"><path d="
M 509.00 0.00 
L 499.00 0.00
C 501.21 1.72 506.72 1.54 509.00 0.00 Z"/>
</g>
<g fill="None" fill-opacity="0.0" stroke="#D0832C" stroke-opacity="0.09" stroke-width="0.3"><path d="
M 574.00 0.00 
L 511.00 0.00
C 530.86 1.67 554.07 1.66 574.00 0.00 Z"/>
</g>
<g fill="None" fill-opacity="0.0" stroke="#CE832C" stroke-opacity="0.08" stroke-width="0.3"><path d="
M 626.00 1.00 
C 625.93 0.99 626.00 0.00 626.00 0.00
L 578.00 0.00
C 593.01 1.83 610.17 1.00 626.00 1.00 Z"/>
</g>
<g fill="None" fill-opacity="0.0" stroke="#BF6B10" stroke-opacity="0.33" stroke-width="0.3"><path d="
M 626.00 1.00 
C 628.33 1.00 630.67 1.00 633.00 1.00
L 633.00 0.00
L 626.00 0.00
C 626.00 0.00 625.93 0.99 626.00 1.00 Z"/>
</g>
<g fill="None" fill-opacity="0.0" stroke="#C97937" stroke-opacity="0.99" stroke-width="0.3"><path d="
M 0.00 2.00 
C 0.63 2.19 1.51 2.54 2.00 3.00
C 2.16 3.01 5.11 2.05 6.00 2.00
C 37.01 0.20 68.94 1.69 100.00 2.00 C 131.06 2.31 163.83 -0.12 194.00 1.00
C 192.38 0.83 190.63 1.00 189.00 1.00
C 185.67 1.00 182.33 1.00 179.00 1.00
C 174.33 1.00 169.67 1.00 165.00 1.00
C 116.33 1.00 67.67 1.00 19.00 1.00
C 12.67 1.00 6.33 1.00 0.00 1.00
L 0.00 2.00 Z"/>
</g>
<g fill="None" fill-opacity="0.0" stroke="#E3A527" stroke-opacity="0.97" stroke-width="0.3"><path d="
M 6.00 2.00 
C 2.66 3.37 13.63 13.39 17.25 16.75 C 20.86 20.11 27.81 27.65 32.25 31.75 C 36.68 35.86 44.41 41.78 50.00 44.00
C 59.30 45.64 63.72 40.60 71.70 48.30 C 79.68 56.01 87.69 67.13 98.00 73.00
C 100.14 73.58 103.21 72.93 106.00 75.00
C 110.27 74.61 117.58 75.04 119.00 76.00
C 131.07 84.11 139.53 104.80 156.00 107.00
C 168.35 107.46 187.24 106.51 200.00 106.00 C 212.76 105.49 232.28 110.67 242.00 103.00
C 245.34 100.49 248.39 96.70 250.00 93.00
C 237.70 83.53 227.90 68.84 215.75 59.25 C 203.60 49.65 195.02 30.65 179.00 29.00
C 159.85 28.89 137.81 32.12 118.00 30.00 C 98.19 27.88 74.55 34.48 56.00 29.00
C 49.80 26.82 41.70 23.00 39.00 16.00
C 51.68 16.05 65.43 15.93 78.00 16.00 C 90.57 16.07 103.74 15.86 116.00 16.00 C 128.26 16.14 142.32 15.70 154.00 16.00 C 165.68 16.30 180.38 14.62 190.32 17.68 C 200.27 20.74 204.88 28.46 211.75 35.25 C 218.63 42.04 224.91 46.86 230.75 54.25 C 236.59 61.63 245.27 64.57 249.75 73.25 C 254.23 81.93 269.45 80.68 268.00 69.00
C 267.93 68.82 267.00 69.00 267.00 69.00
C 258.77 64.97 252.66 54.40 245.75 48.25 C 238.84 42.10 230.11 33.90 224.25 26.75 C 218.38 19.61 206.50 13.39 203.00 5.00
C 200.61 3.09 197.24 1.35 194.00 1.00
C 163.83 -0.12 131.06 2.31 100.00 2.00 C 68.94 1.69 37.01 0.20 6.00 2.00
M 92.00 45.00 
C 104.32 44.73 116.68 45.55 129.00 45.00 C 141.32 44.45 154.81 46.16 167.00 45.00 C 179.19 43.84 184.46 50.89 192.00 58.00
C 192.66 58.62 196.05 60.20 194.00 61.00
C 189.99 65.21 179.06 60.70 173.00 62.00 C 166.94 63.30 157.64 61.27 151.00 62.00 C 144.36 62.73 135.76 61.35 129.00 62.00 C 122.24 62.65 113.21 61.90 110.00 60.00
C 108.72 59.71 106.61 58.43 105.00 58.00
C 99.70 56.58 93.51 49.22 89.00 44.00
C 90.28 43.47 90.86 44.97 92.00 45.00
M 204.00 76.00 
C 212.59 78.30 219.11 83.69 224.00 91.00
C 197.32 88.06 161.64 101.68 143.00 77.00
C 142.89 76.80 139.83 76.75 141.00 75.00
C 161.83 75.67 183.99 73.67 204.00 76.00 Z"/>
</g>
<g fill="None" fill-opacity="0.0" stroke="#E3A527" stroke-opacity="0.97" stroke-width="0.3"><path d="
M 431.00 5.00 
C 427.41 13.61 416.08 18.76 410.25 26.25 C 404.41 33.74 395.49 40.76 388.75 47.75 C 382.01 54.75 374.62 63.06 367.00 69.00
C 366.80 69.32 366.01 69.81 366.00 70.00
C 368.07 74.52 371.83 78.83 376.00 82.00
C 388.91 70.14 397.78 57.09 411.75 45.75 C 425.72 34.41 432.10 16.07 453.00 16.00 C 473.90 15.93 502.86 15.84 525.00 16.00 C 547.14 16.16 573.00 15.05 595.00 17.00
C 591.81 21.81 586.55 25.15 582.00 28.00
C 580.27 29.09 579.85 30.77 577.00 30.00
C 557.24 31.79 536.89 30.04 517.00 30.00 C 497.11 29.96 475.84 31.79 456.00 30.00
C 453.05 32.61 450.19 30.55 448.00 31.00
C 446.16 31.89 445.37 32.61 444.00 34.00
C 426.98 51.27 410.41 70.27 392.00 86.00
C 388.92 87.67 387.11 91.27 384.00 93.00
C 387.61 96.34 389.67 105.41 395.00 107.00
C 421.52 103.35 451.57 107.98 478.00 107.00
C 495.25 104.70 501.49 82.90 515.00 76.00
C 519.12 73.89 524.17 76.02 528.00 76.00
C 532.74 75.51 535.44 73.54 539.00 71.00
C 546.38 63.90 554.66 50.32 564.00 46.00
C 572.36 42.13 588.72 47.15 595.75 39.75 C 602.79 32.36 607.58 28.00 614.25 21.25 C 620.91 14.49 626.06 9.10 633.00 3.00
L 633.00 2.00
C 569.72 3.80 503.24 0.04 440.00 1.00
C 436.91 1.32 432.73 2.23 431.00 5.00
M 521.00 60.00 
C 516.52 61.47 508.60 62.84 502.00 62.00 C 495.40 61.16 487.42 62.83 481.00 62.00 C 474.58 61.17 465.84 63.38 460.00 62.00 C 454.16 60.62 442.83 65.18 439.00 61.00
C 436.47 60.21 440.93 59.05 441.00 59.00
C 449.06 52.57 452.65 44.11 465.00 45.00 C 477.36 45.89 490.39 44.54 503.00 45.00 C 515.61 45.46 529.29 44.66 542.00 45.00
C 537.04 51.91 530.31 59.52 521.00 60.00
M 491.00 77.00 
C 483.97 89.81 471.06 92.33 457.00 91.00 C 442.94 89.67 423.99 93.65 410.00 91.00
C 414.81 83.55 422.02 77.73 431.00 76.00
C 450.08 71.05 472.99 77.63 493.00 75.00
C 493.51 76.41 492.19 77.15 491.00 77.00 Z"/>
</g>
<g fill="None" fill-opacity="0.0" stroke="#E39935" stroke-opacity="0.63" stroke-width="0.3"><path d="
M 2.00 3.00 
C 15.57 15.66 30.89 40.64 50.00 44.00
C 44.41 41.78 36.68 35.86 32.25 31.75 C 27.81 27.65 20.86 20.11 17.25 16.75 C 13.63 13.39 2.66 3.37 6.00 2.00
C 5.11 2.05 2.16 3.01 2.00 3.00 Z"/>
</g>
<g fill="None" fill-opacity="0.0" stroke="#D38335" stroke-opacity="0.92" stroke-width="0.3"><path d="
M 267.00 69.00 
C 262.02 61.89 254.11 55.06 248.00 49.00
C 247.08 48.30 246.74 47.96 246.00 47.00
C 242.37 43.34 238.35 39.88 235.00 36.00
C 233.12 34.14 231.07 31.79 229.00 30.00
C 220.64 22.79 210.31 14.02 204.00 5.00
C 204.00 5.00 203.30 5.24 203.00 5.00
C 206.50 13.39 218.38 19.61 224.25 26.75 C 230.11 33.90 238.84 42.10 245.75 48.25 C 252.66 54.40 258.77 64.97 267.00 69.00 Z"/>
</g>
<g fill="None" fill-opacity="0.0" stroke="#DE9333" stroke-opacity="0.06" stroke-width="0.3"><path d="
M 229.00 30.00 
C 221.83 22.76 213.30 9.55 204.00 5.00
C 210.31 14.02 220.64 22.79 229.00 30.00 Z"/>
</g>
<g fill="None" fill-opacity="0.0" stroke="#E3A527" stroke-opacity="0.97" stroke-width="0.3"><path d="
M 294.00 34.00 
C 292.84 44.31 312.78 51.04 316.00 60.00
C 324.43 53.20 337.06 43.42 340.00 34.00
C 332.49 24.48 325.83 12.14 316.00 5.00
C 309.71 15.14 299.12 23.37 294.00 34.00 Z"/>
</g>
<g fill="None" fill-opacity="0.0" stroke="#DD972E" stroke-opacity="0.09" stroke-width="0.3"><path d="
M 391.00 44.00 
C 403.44 31.45 419.88 19.48 430.00 5.00
C 422.39 8.72 416.74 18.61 410.25 24.25 C 403.76 29.88 396.22 37.17 391.00 44.00 Z"/>
</g>
<g fill="None" fill-opacity="0.0" stroke="#D18137" stroke-opacity="0.99" stroke-width="0.3"><path d="
M 391.00 44.00 
C 390.30 44.92 389.96 45.26 389.00 46.00
C 382.13 52.81 372.05 60.83 367.00 69.00
C 374.62 63.06 382.01 54.75 388.75 47.75 C 395.49 40.76 404.41 33.74 410.25 26.25 C 416.08 18.76 427.41 13.61 431.00 5.00
C 431.00 5.00 430.40 4.80 430.00 5.00
C 419.88 19.48 403.44 31.45 391.00 44.00 Z"/>
</g>
<g fill="None" fill-opacity="0.0" stroke="#D78B3A" stroke-opacity="0.81" stroke-width="0.3"><path d="
M 577.00 29.00 
C 576.75 29.30 577.00 30.00 577.00 30.00
C 579.85 30.77 580.27 29.09 582.00 28.00
C 580.85 28.38 578.16 28.85 577.00 29.00 Z"/>
</g>
<g fill="None" fill-opacity="0.0" stroke="#C77835" stroke-opacity="1.00" stroke-width="0.3"><path d="
M 179.00 29.00 
C 158.73 26.92 137.21 30.99 117.00 29.00 C 96.79 27.01 75.96 32.24 56.00 29.00
C 74.55 34.48 98.19 27.88 118.00 30.00 C 137.81 32.12 159.85 28.89 179.00 29.00 Z"/>
</g>
<g fill="None" fill-opacity="0.0" stroke="#D58B37" stroke-opacity="0.72" stroke-width="0.3"><path d="
M 448.00 31.00 
C 450.19 30.55 453.05 32.61 456.00 30.00
C 456.25 29.78 456.00 29.00 456.00 29.00
C 452.97 29.21 450.68 29.70 448.00 31.00 Z"/>
</g>
<g fill="None" fill-opacity="0.0" stroke="#C77835" stroke-opacity="1.00" stroke-width="0.3"><path d="
M 456.00 30.00 
C 475.84 31.79 497.11 29.96 517.00 30.00 C 536.89 30.04 557.24 31.79 577.00 30.00
C 577.00 30.00 576.75 29.30 577.00 29.00
C 557.13 31.66 535.98 27.48 516.00 29.00 C 496.02 30.52 475.97 27.64 456.00 29.00
C 456.00 29.00 456.25 29.78 456.00 30.00 Z"/>
</g>
<g fill="None" fill-opacity="0.0" stroke="#D68836" stroke-opacity="0.80" stroke-width="0.3"><path d="
M 304.00 49.00 
C 306.69 51.30 313.09 60.24 316.00 61.00
C 317.57 61.23 318.01 60.58 319.00 60.00
C 321.22 58.30 324.01 54.99 326.00 53.00
C 329.32 49.68 340.90 40.55 341.00 36.00
C 340.67 35.11 340.32 34.64 340.00 34.00
C 337.06 43.42 324.43 53.20 316.00 60.00
C 312.78 51.04 292.84 44.31 294.00 34.00
C 291.24 39.73 299.16 44.86 304.00 49.00 Z"/>
</g>
<g fill="None" fill-opacity="0.0" stroke="#CE8428" stroke-opacity="0.74" stroke-width="0.3"><path d="
M 392.00 86.00 
C 410.41 70.27 426.98 51.27 444.00 34.00
C 425.49 48.12 408.91 69.09 392.00 86.00 Z"/>
</g>
<g fill="None" fill-opacity="0.0" stroke="#D49232" stroke-opacity="0.03" stroke-width="0.3"><path d="
M 246.00 47.00 
C 242.87 42.91 238.66 39.63 235.00 36.00
C 238.35 39.88 242.37 43.34 246.00 47.00 Z"/>
</g>
<g fill="None" fill-opacity="0.0" stroke="#DD9331" stroke-opacity="0.16" stroke-width="0.3"><path d="
M 326.00 53.00 
C 329.43 49.57 342.56 40.25 341.00 36.00
C 340.90 40.55 329.32 49.68 326.00 53.00 Z"/>
</g>
<g fill="None" fill-opacity="0.0" stroke="#D38726" stroke-opacity="0.64" stroke-width="0.3"><path d="
M 105.00 58.00 
C 99.39 55.00 96.58 48.39 92.00 45.00
C 90.86 44.97 90.28 43.47 89.00 44.00
C 93.51 49.22 99.70 56.58 105.00 58.00 Z"/>
</g>
<g fill="None" fill-opacity="0.0" stroke="#000000" stroke-opacity="0.00" stroke-width="0.3"><path d="
M 105.00 58.00 
C 106.61 58.43 108.72 59.71 110.00 60.00
C 118.12 61.85 127.48 61.00 136.00 61.00
C 143.33 60.29 151.97 60.00 160.00 60.00
C 163.99 60.00 168.01 59.85 172.00 60.00
C 177.75 60.22 183.06 61.00 189.00 61.00
C 191.13 60.56 192.63 60.20 192.00 58.00
C 184.46 50.89 179.19 43.84 167.00 45.00 C 154.81 46.16 141.32 44.45 129.00 45.00 C 116.68 45.55 104.32 44.73 92.00 45.00
C 96.58 48.39 99.39 55.00 105.00 58.00 Z"/>
</g>
<g fill="None" fill-opacity="0.0" stroke="#000000" stroke-opacity="0.00" stroke-width="0.3"><path d="
M 441.00 59.00 
C 441.34 59.06 442.17 59.90 443.00 60.00
C 455.66 61.56 469.23 59.79 482.00 60.00 C 494.77 60.21 508.26 61.01 521.00 60.00
C 530.31 59.52 537.04 51.91 542.00 45.00
C 529.29 44.66 515.61 45.46 503.00 45.00 C 490.39 44.54 477.36 45.89 465.00 45.00 C 452.65 44.11 449.06 52.57 441.00 59.00 Z"/>
</g>
<g fill="None" fill-opacity="0.0" stroke="#E09931" stroke-opacity="0.09" stroke-width="0.3"><path d="
M 366.00 70.00 
C 366.01 69.81 366.80 69.32 367.00 69.00
C 372.05 60.83 382.13 52.81 389.00 46.00
C 385.39 48.76 379.41 54.21 376.75 57.75 C 374.10 61.30 365.56 65.64 366.00 70.00 Z"/>
</g>
<g fill="None" fill-opacity="0.0" stroke="#DB8F31" stroke-opacity="0.47" stroke-width="0.3"><path d="
M 539.00 71.00 
C 543.88 67.51 547.40 62.62 552.25 59.25 C 557.10 55.88 559.43 48.74 564.00 46.00
C 554.66 50.32 546.38 63.90 539.00 71.00 Z"/>
</g>
<g fill="None" fill-opacity="0.0" stroke="#E29831" stroke-opacity="0.06" stroke-width="0.3"><path d="
M 267.00 69.00 
C 267.00 69.00 267.93 68.82 268.00 69.00
C 265.27 62.45 253.65 53.32 248.00 49.00
C 254.11 55.06 262.02 61.89 267.00 69.00 Z"/>
</g>
<g fill="None" fill-opacity="0.0" stroke="#D08724" stroke-opacity="0.32" stroke-width="0.3"><path d="
M 316.00 61.00 
C 313.09 60.24 306.69 51.30 304.00 49.00
C 306.64 51.64 312.03 60.40 316.00 61.00 Z"/>
</g>
<g fill="None" fill-opacity="0.0" stroke="#C98026" stroke-opacity="0.40" stroke-width="0.3"><path d="
M 319.00 60.00 
C 321.88 58.32 323.69 55.31 326.00 53.00
C 324.01 54.99 321.22 58.30 319.00 60.00 Z"/>
</g>
<g fill="None" fill-opacity="0.0" stroke="#C78925" stroke-opacity="0.15" stroke-width="0.3"><path d="
M 189.00 61.00 
C 190.34 61.00 192.77 61.48 194.00 61.00
C 196.05 60.20 192.66 58.62 192.00 58.00
C 192.63 60.20 191.13 60.56 189.00 61.00 Z"/>
</g>
<g fill="None" fill-opacity="0.0" stroke="#E3A429" stroke-opacity="0.94" stroke-width="0.3"><path d="
M 217.00 149.00 
L 263.00 149.00
C 271.08 138.09 279.75 125.90 288.75 115.75 C 297.75 105.60 284.43 106.76 283.00 98.00
C 275.60 102.78 273.28 111.36 267.23 117.23 C 261.19 123.10 257.61 135.26 248.00 134.00
C 261.71 117.18 273.78 97.68 289.00 83.00
C 294.01 94.16 312.39 105.47 301.70 116.70 C 291.00 127.92 285.85 137.35 277.00 149.00
L 295.00 149.00
C 304.30 141.82 308.83 128.66 318.00 122.00
C 324.43 131.34 331.23 141.10 339.00 149.00
L 357.00 149.00
C 348.36 137.29 342.89 127.89 332.25 116.75 C 321.60 105.61 339.88 93.63 346.00 83.00
C 360.36 99.06 372.78 116.97 386.00 134.00
C 376.45 134.78 373.01 123.71 367.25 117.75 C 361.49 111.80 358.38 102.74 351.00 98.00
C 347.85 101.94 345.05 106.29 342.00 110.00
C 350.60 123.69 362.14 135.51 371.00 149.00
L 417.00 149.00
C 394.80 118.25 371.41 85.85 346.00 58.00
C 336.23 70.58 327.38 85.53 316.00 96.00
C 306.28 83.22 297.68 69.31 286.00 58.00
C 263.36 88.52 238.19 117.80 217.00 149.00 Z"/>
</g>
<g fill="None" fill-opacity="0.0" stroke="#BB7423" stroke-opacity="0.40" stroke-width="0.3"><path d="
M 439.00 61.00 
C 440.84 61.57 441.93 60.19 443.00 60.00
C 442.17 59.90 441.34 59.06 441.00 59.00
C 440.93 59.05 436.47 60.21 439.00 61.00 Z"/>
</g>
<g fill="None" fill-opacity="0.0" stroke="#EA9C49" stroke-opacity="0.90" stroke-width="0.3"><path d="
M 194.00 61.00 
C 192.77 61.48 190.34 61.00 189.00 61.00
C 183.06 61.00 177.75 60.22 172.00 60.00
C 168.70 60.19 164.00 61.00 160.00 61.00
C 152.00 61.00 144.00 61.00 136.00 61.00
C 127.48 61.00 118.12 61.85 110.00 60.00
C 113.21 61.90 122.24 62.65 129.00 62.00 C 135.76 61.35 144.36 62.73 151.00 62.00 C 157.64 61.27 166.94 63.30 173.00 62.00 C 179.06 60.70 189.99 65.21 194.00 61.00 Z"/>
</g>
<g fill="None" fill-opacity="0.0" stroke="#FF8A3B" stroke-opacity="0.02" stroke-width="0.3"><path d="
M 136.00 61.00 
C 144.00 61.00 152.00 61.00 160.00 61.00
C 159.96 61.00 160.00 60.00 160.00 60.00
C 151.97 60.00 143.33 60.29 136.00 61.00 Z"/>
</g>
<g fill="None" fill-opacity="0.0" stroke="#D3AA55" stroke-opacity="0.02" stroke-width="0.3"><path d="
M 160.00 61.00 
C 164.00 61.00 168.70 60.19 172.00 60.00
C 168.01 59.85 163.99 60.00 160.00 60.00
C 160.00 60.00 159.96 61.00 160.00 61.00 Z"/>
</g>
<g fill="None" fill-opacity="0.0" stroke="#E99D45" stroke-opacity="0.53" stroke-width="0.3"><path d="
M 439.00 61.00 
C 442.83 65.18 454.16 60.62 460.00 62.00 C 465.84 63.38 474.58 61.17 481.00 62.00 C 487.42 62.83 495.40 61.16 502.00 62.00 C 508.60 62.84 516.52 61.47 521.00 60.00
C 508.26 61.01 494.77 60.21 482.00 60.00 C 469.23 59.79 455.66 61.56 443.00 60.00
C 441.93 60.19 440.84 61.57 439.00 61.00 Z"/>
</g>
<g fill="None" fill-opacity="0.0" stroke="#E0953C" stroke-opacity="0.71" stroke-width="0.3"><path d="
M 98.00 73.00 
C 100.38 74.36 102.81 76.17 106.00 76.00
C 105.96 76.00 106.00 75.00 106.00 75.00
C 103.21 72.93 100.14 73.58 98.00 73.00 Z"/>
</g>
<g fill="None" fill-opacity="0.0" stroke="#C77A29" stroke-opacity="0.99" stroke-width="0.3"><path d="
M 106.00 76.00 
C 109.92 76.35 115.28 74.79 119.00 76.00
C 117.58 75.04 110.27 74.61 106.00 75.00
C 106.00 75.00 105.96 76.00 106.00 76.00 Z"/>
</g>
<g fill="None" fill-opacity="0.0" stroke="#C87B26" stroke-opacity="0.98" stroke-width="0.3"><path d="
M 143.00 77.00 
C 151.72 78.39 163.21 74.42 173.00 76.00 C 182.79 77.58 194.10 74.62 204.00 76.00
C 183.99 73.67 161.83 75.67 141.00 75.00
C 139.83 76.75 142.89 76.80 143.00 77.00 Z"/>
</g>
<g fill="None" fill-opacity="0.0" stroke="#C77A27" stroke-opacity="0.98" stroke-width="0.3"><path d="
M 431.00 76.00 
C 440.69 74.71 451.39 77.56 461.00 76.00 C 470.61 74.44 482.48 78.36 491.00 77.00
C 492.19 77.15 493.51 76.41 493.00 75.00
C 472.99 77.63 450.08 71.05 431.00 76.00 Z"/>
</g>
<g fill="None" fill-opacity="0.0" stroke="#C77A26" stroke-opacity="1.00" stroke-width="0.3"><path d="
M 515.00 76.00 
C 518.71 74.76 524.08 76.40 528.00 76.00
C 524.17 76.02 519.12 73.89 515.00 76.00 Z"/>
</g>
<g fill="None" fill-opacity="0.0" stroke="#000000" stroke-opacity="0.00" stroke-width="0.3"><path d="
M 143.00 77.00 
C 161.64 101.68 197.32 88.06 224.00 91.00
C 219.11 83.69 212.59 78.30 204.00 76.00
C 194.10 74.62 182.79 77.58 173.00 76.00 C 163.21 74.42 151.72 78.39 143.00 77.00 Z"/>
</g>
<g fill="None" fill-opacity="0.0" stroke="#000000" stroke-opacity="0.00" stroke-width="0.3"><path d="
M 491.00 77.00 
C 482.48 78.36 470.61 74.44 461.00 76.00 C 451.39 77.56 440.69 74.71 431.00 76.00
C 422.02 77.73 414.81 83.55 410.00 91.00
C 423.99 93.65 442.94 89.67 457.00 91.00 C 471.06 92.33 483.97 89.81 491.00 77.00 Z"/>
</g>
<g fill="None" fill-opacity="0.0" stroke="#000000" stroke-opacity="0.00" stroke-width="0.3"><path d="
M 263.00 149.00 
L 277.00 149.00
C 285.85 137.35 291.00 127.92 301.70 116.70 C 312.39 105.47 294.01 94.16 289.00 83.00
C 273.78 97.68 261.71 117.18 248.00 134.00
C 257.61 135.26 261.19 123.10 267.23 117.23 C 273.28 111.36 275.60 102.78 283.00 98.00
C 284.43 106.76 297.75 105.60 288.75 115.75 C 279.75 125.90 271.08 138.09 263.00 149.00 Z"/>
</g>
<g fill="None" fill-opacity="0.0" stroke="#000000" stroke-opacity="0.00" stroke-width="0.3"><path d="
M 357.00 149.00 
L 371.00 149.00
C 362.14 135.51 350.60 123.69 342.00 110.00
C 345.05 106.29 347.85 101.94 351.00 98.00
C 358.38 102.74 361.49 111.80 367.25 117.75 C 373.01 123.71 376.45 134.78 386.00 134.00
C 372.78 116.97 360.36 99.06 346.00 83.00
C 339.88 93.63 321.60 105.61 332.25 116.75 C 342.89 127.89 348.36 137.29 357.00 149.00 Z"/>
</g>
<g fill="None" fill-opacity="0.0" stroke="#CB7935" stroke-opacity="0.98" stroke-width="0.3"><path d="
M 156.00 107.00 
C 165.64 108.28 176.31 106.56 186.00 107.00 C 195.69 107.44 206.48 107.12 216.00 107.00 C 225.52 106.88 236.19 109.54 242.00 103.00
C 232.28 110.67 212.76 105.49 200.00 106.00 C 187.24 106.51 168.35 107.46 156.00 107.00 Z"/>
</g>
<g fill="None" fill-opacity="0.0" stroke="#CA7735" stroke-opacity="1.00" stroke-width="0.3"><path d="
M 395.00 107.00 
C 403.40 109.51 414.18 106.08 423.00 107.00 C 431.82 107.92 442.11 107.05 451.00 107.00 C 459.89 106.95 469.23 108.17 478.00 107.00
C 451.57 107.98 421.52 103.35 395.00 107.00 Z"/>
</g>
<g fill="None" fill-opacity="0.0" stroke="#000000" stroke-opacity="0.00" stroke-width="0.3"><path d="
M 295.00 149.00 
L 339.00 149.00
C 331.23 141.10 324.43 131.34 318.00 122.00
C 308.83 128.66 304.30 141.82 295.00 149.00 Z"/>
</g>
<g fill="#CC811E" fill-opacity="0.21" stroke="None">
<path d="
M 0.00 1.00 
C 6.33 1.00 12.67 1.00 19.00 1.00
C 18.96 1.00 19.00 0.00 19.00 0.00
L 0.00 0.00
L 0.00 1.00 Z"/>
</g>
<g fill="#CD852F" fill-opacity="0.07" stroke="None">
<path d="
M 19.00 1.00 
C 67.67 1.00 116.33 1.00 165.00 1.00
C 164.96 1.00 165.00 0.00 165.00 0.00
L 19.00 0.00
C 19.00 0.00 18.96 1.00 19.00 1.00 Z"/>
</g>
<g fill="#478039" fill-opacity="0.07" stroke="None">
<path d="
M 165.00 1.00 
C 169.67 1.00 174.33 1.00 179.00 1.00
C 178.96 1.00 179.00 0.00 179.00 0.00
L 165.00 0.00
C 165.00 0.00 164.96 1.00 165.00 1.00 Z"/>
</g>
<g fill="#D2862D" fill-opacity="0.07" stroke="None">
<path d="
M 179.00 1.00 
C 182.33 1.00 185.67 1.00 189.00 1.00
C 188.85 0.95 189.00 0.00 189.00 0.00
L 179.00 0.00
C 179.00 0.00 178.96 1.00 179.00 1.00 Z"/>
</g>
<g fill="#000000" fill-opacity="0.00" stroke="None">
<path d="
M 189.00 1.00 
C 190.63 1.00 192.38 0.83 194.00 1.00
C 197.24 1.35 200.61 3.09 203.00 5.00
C 203.30 5.24 204.00 5.00 204.00 5.00
C 213.30 9.55 221.83 22.76 229.00 30.00
C 231.07 31.79 233.12 34.14 235.00 36.00
C 238.66 39.63 242.87 42.91 246.00 47.00
C 246.74 47.96 247.08 48.30 248.00 49.00
C 253.65 53.32 265.27 62.45 268.00 69.00
C 269.45 80.68 254.23 81.93 249.75 73.25 C 245.27 64.57 236.59 61.63 230.75 54.25 C 224.91 46.86 218.63 42.04 211.75 35.25 C 204.88 28.46 200.27 20.74 190.32 17.68 C 180.38 14.62 165.68 16.30 154.00 16.00 C 142.32 15.70 128.26 16.14 116.00 16.00 C 103.74 15.86 90.57 16.07 78.00 16.00 C 65.43 15.93 51.68 16.05 39.00 16.00
C 41.70 23.00 49.80 26.82 56.00 29.00
C 75.96 32.24 96.79 27.01 117.00 29.00 C 137.21 30.99 158.73 26.92 179.00 29.00
C 195.02 30.65 203.60 49.65 215.75 59.25 C 227.90 68.84 237.70 83.53 250.00 93.00
C 248.39 96.70 245.34 100.49 242.00 103.00
C 236.19 109.54 225.52 106.88 216.00 107.00 C 206.48 107.12 195.69 107.44 186.00 107.00 C 176.31 106.56 165.64 108.28 156.00 107.00
C 139.53 104.80 131.07 84.11 119.00 76.00
C 115.28 74.79 109.92 76.35 106.00 76.00
C 102.81 76.17 100.38 74.36 98.00 73.00
C 87.69 67.13 79.68 56.01 71.70 48.30 C 63.72 40.60 59.30 45.64 50.00 44.00
C 30.89 40.64 15.57 15.66 2.00 3.00
C 1.51 2.54 0.63 2.19 0.00 2.00
L 0.00 149.00
L 217.00 149.00
C 238.19 117.80 263.36 88.52 286.00 58.00
C 297.68 69.31 306.28 83.22 316.00 96.00
C 327.38 85.53 336.23 70.58 346.00 58.00
C 371.41 85.85 394.80 118.25 417.00 149.00
L 633.00 149.00
L 633.00 3.00
C 626.06 9.10 620.91 14.49 614.25 21.25 C 607.58 28.00 602.79 32.36 595.75 39.75 C 588.72 47.15 572.36 42.13 564.00 46.00
C 559.43 48.74 557.10 55.88 552.25 59.25 C 547.40 62.62 543.88 67.51 539.00 71.00
C 535.44 73.54 532.74 75.51 528.00 76.00
C 524.08 76.40 518.71 74.76 515.00 76.00
C 501.49 82.90 495.25 104.70 478.00 107.00
C 469.23 108.17 459.89 106.95 451.00 107.00 C 442.11 107.05 431.82 107.92 423.00 107.00 C 414.18 106.08 403.40 109.51 395.00 107.00
C 389.67 105.41 387.61 96.34 384.00 93.00
C 387.11 91.27 388.92 87.67 392.00 86.00
C 408.91 69.09 425.49 48.12 444.00 34.00
C 445.37 32.61 446.16 31.89 448.00 31.00
C 450.68 29.70 452.97 29.21 456.00 29.00
C 475.97 27.64 496.02 30.52 516.00 29.00 C 535.98 27.48 557.13 31.66 577.00 29.00
C 578.16 28.85 580.85 28.38 582.00 28.00
C 586.55 25.15 591.81 21.81 595.00 17.00
C 573.00 15.05 547.14 16.16 525.00 16.00 C 502.86 15.84 473.90 15.93 453.00 16.00 C 432.10 16.07 425.72 34.41 411.75 45.75 C 397.78 57.09 388.91 70.14 376.00 82.00
C 371.83 78.83 368.07 74.52 366.00 70.00
C 365.56 65.64 374.10 61.30 376.75 57.75 C 379.41 54.21 385.39 48.76 389.00 46.00
C 389.96 45.26 390.30 44.92 391.00 44.00
C 396.22 37.17 403.76 29.88 410.25 24.25 C 416.74 18.61 422.39 8.72 430.00 5.00
C 430.40 4.80 431.00 5.00 431.00 5.00
C 432.73 2.23 436.91 1.32 440.00 1.00
C 440.97 0.90 442.02 1.00 443.00 1.00
C 443.25 0.73 443.00 0.00 443.00 0.00
L 189.00 0.00
C 189.00 0.00 188.85 0.95 189.00 1.00
M 340.00 34.00 
C 340.32 34.64 340.67 35.11 341.00 36.00
C 342.56 40.25 329.43 49.57 326.00 53.00
C 323.69 55.31 321.88 58.32 319.00 60.00
C 318.01 60.58 317.57 61.23 316.00 61.00
C 312.03 60.40 306.64 51.64 304.00 49.00
C 299.16 44.86 291.24 39.73 294.00 34.00
C 299.12 23.37 309.71 15.14 316.00 5.00
C 325.83 12.14 332.49 24.48 340.00 34.00 Z"/>
</g>
<g fill="#D0842E" fill-opacity="0.06" stroke="None">
<path d="
M 443.00 1.00 
C 449.16 1.00 456.66 1.83 462.00 0.00
L 443.00 0.00
C 443.00 0.00 443.25 0.73 443.00 1.00 Z"/>
</g>
<g fill="#CB7736" fill-opacity="0.93" stroke="None">
<path d="
M 443.00 1.00 
C 442.02 1.00 440.97 0.90 440.00 1.00
C 503.24 0.04 569.72 3.80 633.00 2.00
L 633.00 1.00
C 630.67 1.00 628.33 1.00 626.00 1.00
C 610.17 1.00 593.01 1.83 578.00 0.00
L 574.00 0.00
C 554.07 1.66 530.86 1.67 511.00 0.00
L 509.00 0.00
C 506.72 1.54 501.21 1.72 499.00 0.00
L 494.00 0.00
C 485.74 1.65 474.19 1.68 466.00 0.00
L 462.00 0.00
C 456.66 1.83 449.16 1.00 443.00 1.00 Z"/>
</g>
<g fill="#CF832F" fill-opacity="0.06" stroke="None">
<path d="
M 494.00 0.00 
L 466.00 0.00
C 474.19 1.68 485.74 1.65 494.00 0.00 Z"/>
</g>
<g fill="#D0822E" fill-opacity="0.07" stroke="None">
<path d="
M 509.00 0.00 
L 499.00 0.00
C 501.21 1.72 506.72 1.54 509.00 0.00 Z"/>
</g>
<g fill="#D0832C" fill-opacity="0.09" stroke="None">
<path d="
M 574.00 0.00 
L 511.00 0.00
C 530.86 1.67 554.07 1.66 574.00 0.00 Z"/>
</g>
<g fill="#CE832C" fill-opacity="0.08" stroke="None">
<path d="
M 626.00 1.00 
C 625.93 0.99 626.00 0.00 626.00 0.00
L 578.00 0.00
C 593.01 1.83 610.17 1.00 626.00 1.00 Z"/>
</g>
<g fill="#BF6B10" fill-opacity="0.33" stroke="None">
<path d="
M 626.00 1.00 
C 628.33 1.00 630.67 1.00 633.00 1.00
L 633.00 0.00
L 626.00 0.00
C 626.00 0.00 625.93 0.99 626.00 1.00 Z"/>
</g>
<g fill="#C97937" fill-opacity="0.99" stroke="None">
<path d="
M 0.00 2.00 
C 0.63 2.19 1.51 2.54 2.00 3.00
C 2.16 3.01 5.11 2.05 6.00 2.00
C 37.01 0.20 68.94 1.69 100.00 2.00 C 131.06 2.31 163.83 -0.12 194.00 1.00
C 192.38 0.83 190.63 1.00 189.00 1.00
C 185.67 1.00 182.33 1.00 179.00 1.00
C 174.33 1.00 169.67 1.00 165.00 1.00
C 116.33 1.00 67.67 1.00 19.00 1.00
C 12.67 1.00 6.33 1.00 0.00 1.00
L 0.00 2.00 Z"/>
</g>
<g fill="#E3A527" fill-opacity="0.97" stroke="None">
<path d="
M 6.00 2.00 
C 2.66 3.37 13.63 13.39 17.25 16.75 C 20.86 20.11 27.81 27.65 32.25 31.75 C 36.68 35.86 44.41 41.78 50.00 44.00
C 59.30 45.64 63.72 40.60 71.70 48.30 C 79.68 56.01 87.69 67.13 98.00 73.00
C 100.14 73.58 103.21 72.93 106.00 75.00
C 110.27 74.61 117.58 75.04 119.00 76.00
C 131.07 84.11 139.53 104.80 156.00 107.00
C 168.35 107.46 187.24 106.51 200.00 106.00 C 212.76 105.49 232.28 110.67 242.00 103.00
C 245.34 100.49 248.39 96.70 250.00 93.00
C 237.70 83.53 227.90 68.84 215.75 59.25 C 203.60 49.65 195.02 30.65 179.00 29.00
C 159.85 28.89 137.81 32.12 118.00 30.00 C 98.19 27.88 74.55 34.48 56.00 29.00
C 49.80 26.82 41.70 23.00 39.00 16.00
C 51.68 16.05 65.43 15.93 78.00 16.00 C 90.57 16.07 103.74 15.86 116.00 16.00 C 128.26 16.14 142.32 15.70 154.00 16.00 C 165.68 16.30 180.38 14.62 190.32 17.68 C 200.27 20.74 204.88 28.46 211.75 35.25 C 218.63 42.04 224.91 46.86 230.75 54.25 C 236.59 61.63 245.27 64.57 249.75 73.25 C 254.23 81.93 269.45 80.68 268.00 69.00
C 267.93 68.82 267.00 69.00 267.00 69.00
C 258.77 64.97 252.66 54.40 245.75 48.25 C 238.84 42.10 230.11 33.90 224.25 26.75 C 218.38 19.61 206.50 13.39 203.00 5.00
C 200.61 3.09 197.24 1.35 194.00 1.00
C 163.83 -0.12 131.06 2.31 100.00 2.00 C 68.94 1.69 37.01 0.20 6.00 2.00
M 92.00 45.00 
C 104.32 44.73 116.68 45.55 129.00 45.00 C 141.32 44.45 154.81 46.16 167.00 45.00 C 179.19 43.84 184.46 50.89 192.00 58.00
C 192.66 58.62 196.05 60.20 194.00 61.00
C 189.99 65.21 179.06 60.70 173.00 62.00 C 166.94 63.30 157.64 61.27 151.00 62.00 C 144.36 62.73 135.76 61.35 129.00 62.00 C 122.24 62.65 113.21 61.90 110.00 60.00
C 108.72 59.71 106.61 58.43 105.00 58.00
C 99.70 56.58 93.51 49.22 89.00 44.00
C 90.28 43.47 90.86 44.97 92.00 45.00
M 204.00 76.00 
C 212.59 78.30 219.11 83.69 224.00 91.00
C 197.32 88.06 161.64 101.68 143.00 77.00
C 142.89 76.80 139.83 76.75 141.00 75.00
C 161.83 75.67 183.99 73.67 204.00 76.00 Z"/>
</g>
<g fill="#E3A527" fill-opacity="0.97" stroke="None">
<path d="
M 431.00 5.00 
C 427.41 13.61 416.08 18.76 410.25 26.25 C 404.41 33.74 395.49 40.76 388.75 47.75 C 382.01 54.75 374.62 63.06 367.00 69.00
C 366.80 69.32 366.01 69.81 366.00 70.00
C 368.07 74.52 371.83 78.83 376.00 82.00
C 388.91 70.14 397.78 57.09 411.75 45.75 C 425.72 34.41 432.10 16.07 453.00 16.00 C 473.90 15.93 502.86 15.84 525.00 16.00 C 547.14 16.16 573.00 15.05 595.00 17.00
C 591.81 21.81 586.55 25.15 582.00 28.00
C 580.27 29.09 579.85 30.77 577.00 30.00
C 557.24 31.79 536.89 30.04 517.00 30.00 C 497.11 29.96 475.84 31.79 456.00 30.00
C 453.05 32.61 450.19 30.55 448.00 31.00
C 446.16 31.89 445.37 32.61 444.00 34.00
C 426.98 51.27 410.41 70.27 392.00 86.00
C 388.92 87.67 387.11 91.27 384.00 93.00
C 387.61 96.34 389.67 105.41 395.00 107.00
C 421.52 103.35 451.57 107.98 478.00 107.00
C 495.25 104.70 501.49 82.90 515.00 76.00
C 519.12 73.89 524.17 76.02 528.00 76.00
C 532.74 75.51 535.44 73.54 539.00 71.00
C 546.38 63.90 554.66 50.32 564.00 46.00
C 572.36 42.13 588.72 47.15 595.75 39.75 C 602.79 32.36 607.58 28.00 614.25 21.25 C 620.91 14.49 626.06 9.10 633.00 3.00
L 633.00 2.00
C 569.72 3.80 503.24 0.04 440.00 1.00
C 436.91 1.32 432.73 2.23 431.00 5.00
M 521.00 60.00 
C 516.52 61.47 508.60 62.84 502.00 62.00 C 495.40 61.16 487.42 62.83 481.00 62.00 C 474.58 61.17 465.84 63.38 460.00 62.00 C 454.16 60.62 442.83 65.18 439.00 61.00
C 436.47 60.21 440.93 59.05 441.00 59.00
C 449.06 52.57 452.65 44.11 465.00 45.00 C 477.36 45.89 490.39 44.54 503.00 45.00 C 515.61 45.46 529.29 44.66 542.00 45.00
C 537.04 51.91 530.31 59.52 521.00 60.00
M 491.00 77.00 
C 483.97 89.81 471.06 92.33 457.00 91.00 C 442.94 89.67 423.99 93.65 410.00 91.00
C 414.81 83.55 422.02 77.73 431.00 76.00
C 450.08 71.05 472.99 77.63 493.00 75.00
C 493.51 76.41 492.19 77.15 491.00 77.00 Z"/>
</g>
<g fill="#E39935" fill-opacity="0.63" stroke="None">
<path d="
M 2.00 3.00 
C 15.57 15.66 30.89 40.64 50.00 44.00
C 44.41 41.78 36.68 35.86 32.25 31.75 C 27.81 27.65 20.86 20.11 17.25 16.75 C 13.63 13.39 2.66 3.37 6.00 2.00
C 5.11 2.05 2.16 3.01 2.00 3.00 Z"/>
</g>
<g fill="#D38335" fill-opacity="0.92" stroke="None">
<path d="
M 267.00 69.00 
C 262.02 61.89 254.11 55.06 248.00 49.00
C 247.08 48.30 246.74 47.96 246.00 47.00
C 242.37 43.34 238.35 39.88 235.00 36.00
C 233.12 34.14 231.07 31.79 229.00 30.00
C 220.64 22.79 210.31 14.02 204.00 5.00
C 204.00 5.00 203.30 5.24 203.00 5.00
C 206.50 13.39 218.38 19.61 224.25 26.75 C 230.11 33.90 238.84 42.10 245.75 48.25 C 252.66 54.40 258.77 64.97 267.00 69.00 Z"/>
</g>
<g fill="#DE9333" fill-opacity="0.06" stroke="None">
<path d="
M 229.00 30.00 
C 221.83 22.76 213.30 9.55 204.00 5.00
C 210.31 14.02 220.64 22.79 229.00 30.00 Z"/>
</g>
<g fill="#E3A527" fill-opacity="0.97" stroke="None">
<path d="
M 294.00 34.00 
C 292.84 44.31 312.78 51.04 316.00 60.00
C 324.43 53.20 337.06 43.42 340.00 34.00
C 332.49 24.48 325.83 12.14 316.00 5.00
C 309.71 15.14 299.12 23.37 294.00 34.00 Z"/>
</g>
<g fill="#DD972E" fill-opacity="0.09" stroke="None">
<path d="
M 391.00 44.00 
C 403.44 31.45 419.88 19.48 430.00 5.00
C 422.39 8.72 416.74 18.61 410.25 24.25 C 403.76 29.88 396.22 37.17 391.00 44.00 Z"/>
</g>
<g fill="#D18137" fill-opacity="0.99" stroke="None">
<path d="
M 391.00 44.00 
C 390.30 44.92 389.96 45.26 389.00 46.00
C 382.13 52.81 372.05 60.83 367.00 69.00
C 374.62 63.06 382.01 54.75 388.75 47.75 C 395.49 40.76 404.41 33.74 410.25 26.25 C 416.08 18.76 427.41 13.61 431.00 5.00
C 431.00 5.00 430.40 4.80 430.00 5.00
C 419.88 19.48 403.44 31.45 391.00 44.00 Z"/>
</g>
<g fill="#D78B3A" fill-opacity="0.81" stroke="None">
<path d="
M 577.00 29.00 
C 576.75 29.30 577.00 30.00 577.00 30.00
C 579.85 30.77 580.27 29.09 582.00 28.00
C 580.85 28.38 578.16 28.85 577.00 29.00 Z"/>
</g>
<g fill="#C77835" fill-opacity="1.00" stroke="None">
<path d="
M 179.00 29.00 
C 158.73 26.92 137.21 30.99 117.00 29.00 C 96.79 27.01 75.96 32.24 56.00 29.00
C 74.55 34.48 98.19 27.88 118.00 30.00 C 137.81 32.12 159.85 28.89 179.00 29.00 Z"/>
</g>
<g fill="#D58B37" fill-opacity="0.72" stroke="None">
<path d="
M 448.00 31.00 
C 450.19 30.55 453.05 32.61 456.00 30.00
C 456.25 29.78 456.00 29.00 456.00 29.00
C 452.97 29.21 450.68 29.70 448.00 31.00 Z"/>
</g>
<g fill="#C77835" fill-opacity="1.00" stroke="None">
<path d="
M 456.00 30.00 
C 475.84 31.79 497.11 29.96 517.00 30.00 C 536.89 30.04 557.24 31.79 577.00 30.00
C 577.00 30.00 576.75 29.30 577.00 29.00
C 557.13 31.66 535.98 27.48 516.00 29.00 C 496.02 30.52 475.97 27.64 456.00 29.00
C 456.00 29.00 456.25 29.78 456.00 30.00 Z"/>
</g>
<g fill="#D68836" fill-opacity="0.80" stroke="None">
<path d="
M 304.00 49.00 
C 306.69 51.30 313.09 60.24 316.00 61.00
C 317.57 61.23 318.01 60.58 319.00 60.00
C 321.22 58.30 324.01 54.99 326.00 53.00
C 329.32 49.68 340.90 40.55 341.00 36.00
C 340.67 35.11 340.32 34.64 340.00 34.00
C 337.06 43.42 324.43 53.20 316.00 60.00
C 312.78 51.04 292.84 44.31 294.00 34.00
C 291.24 39.73 299.16 44.86 304.00 49.00 Z"/>
</g>
<g fill="#CE8428" fill-opacity="0.74" stroke="None">
<path d="
M 392.00 86.00 
C 410.41 70.27 426.98 51.27 444.00 34.00
C 425.49 48.12 408.91 69.09 392.00 86.00 Z"/>
</g>
<g fill="#D49232" fill-opacity="0.03" stroke="None">
<path d="
M 246.00 47.00 
C 242.87 42.91 238.66 39.63 235.00 36.00
C 238.35 39.88 242.37 43.34 246.00 47.00 Z"/>
</g>
<g fill="#DD9331" fill-opacity="0.16" stroke="None">
<path d="
M 326.00 53.00 
C 329.43 49.57 342.56 40.25 341.00 36.00
C 340.90 40.55 329.32 49.68 326.00 53.00 Z"/>
</g>
<g fill="#D38726" fill-opacity="0.64" stroke="None">
<path d="
M 105.00 58.00 
C 99.39 55.00 96.58 48.39 92.00 45.00
C 90.86 44.97 90.28 43.47 89.00 44.00
C 93.51 49.22 99.70 56.58 105.00 58.00 Z"/>
</g>
<g fill="#000000" fill-opacity="0.00" stroke="None">
<path d="
M 105.00 58.00 
C 106.61 58.43 108.72 59.71 110.00 60.00
C 118.12 61.85 127.48 61.00 136.00 61.00
C 143.33 60.29 151.97 60.00 160.00 60.00
C 163.99 60.00 168.01 59.85 172.00 60.00
C 177.75 60.22 183.06 61.00 189.00 61.00
C 191.13 60.56 192.63 60.20 192.00 58.00
C 184.46 50.89 179.19 43.84 167.00 45.00 C 154.81 46.16 141.32 44.45 129.00 45.00 C 116.68 45.55 104.32 44.73 92.00 45.00
C 96.58 48.39 99.39 55.00 105.00 58.00 Z"/>
</g>
<g fill="#000000" fill-opacity="0.00" stroke="None">
<path d="
M 441.00 59.00 
C 441.34 59.06 442.17 59.90 443.00 60.00
C 455.66 61.56 469.23 59.79 482.00 60.00 C 494.77 60.21 508.26 61.01 521.00 60.00
C 530.31 59.52 537.04 51.91 542.00 45.00
C 529.29 44.66 515.61 45.46 503.00 45.00 C 490.39 44.54 477.36 45.89 465.00 45.00 C 452.65 44.11 449.06 52.57 441.00 59.00 Z"/>
</g>
<g fill="#E09931" fill-opacity="0.09" stroke="None">
<path d="
M 366.00 70.00 
C 366.01 69.81 366.80 69.32 367.00 69.00
C 372.05 60.83 382.13 52.81 389.00 46.00
C 385.39 48.76 379.41 54.21 376.75 57.75 C 374.10 61.30 365.56 65.64 366.00 70.00 Z"/>
</g>
<g fill="#DB8F31" fill-opacity="0.47" stroke="None">
<path d="
M 539.00 71.00 
C 543.88 67.51 547.40 62.62 552.25 59.25 C 557.10 55.88 559.43 48.74 564.00 46.00
C 554.66 50.32 546.38 63.90 539.00 71.00 Z"/>
</g>
<g fill="#E29831" fill-opacity="0.06" stroke="None">
<path d="
M 267.00 69.00 
C 267.00 69.00 267.93 68.82 268.00 69.00
C 265.27 62.45 253.65 53.32 248.00 49.00
C 254.11 55.06 262.02 61.89 267.00 69.00 Z"/>
</g>
<g fill="#D08724" fill-opacity="0.32" stroke="None">
<path d="
M 316.00 61.00 
C 313.09 60.24 306.69 51.30 304.00 49.00
C 306.64 51.64 312.03 60.40 316.00 61.00 Z"/>
</g>
<g fill="#C98026" fill-opacity="0.40" stroke="None">
<path d="
M 319.00 60.00 
C 321.88 58.32 323.69 55.31 326.00 53.00
C 324.01 54.99 321.22 58.30 319.00 60.00 Z"/>
</g>
<g fill="#C78925" fill-opacity="0.15" stroke="None">
<path d="
M 189.00 61.00 
C 190.34 61.00 192.77 61.48 194.00 61.00
C 196.05 60.20 192.66 58.62 192.00 58.00
C 192.63 60.20 191.13 60.56 189.00 61.00 Z"/>
</g>
<g fill="#E3A429" fill-opacity="0.94" stroke="None">
<path d="
M 217.00 149.00 
L 263.00 149.00
C 271.08 138.09 279.75 125.90 288.75 115.75 C 297.75 105.60 284.43 106.76 283.00 98.00
C 275.60 102.78 273.28 111.36 267.23 117.23 C 261.19 123.10 257.61 135.26 248.00 134.00
C 261.71 117.18 273.78 97.68 289.00 83.00
C 294.01 94.16 312.39 105.47 301.70 116.70 C 291.00 127.92 285.85 137.35 277.00 149.00
L 295.00 149.00
C 304.30 141.82 308.83 128.66 318.00 122.00
C 324.43 131.34 331.23 141.10 339.00 149.00
L 357.00 149.00
C 348.36 137.29 342.89 127.89 332.25 116.75 C 321.60 105.61 339.88 93.63 346.00 83.00
C 360.36 99.06 372.78 116.97 386.00 134.00
C 376.45 134.78 373.01 123.71 367.25 117.75 C 361.49 111.80 358.38 102.74 351.00 98.00
C 347.85 101.94 345.05 106.29 342.00 110.00
C 350.60 123.69 362.14 135.51 371.00 149.00
L 417.00 149.00
C 394.80 118.25 371.41 85.85 346.00 58.00
C 336.23 70.58 327.38 85.53 316.00 96.00
C 306.28 83.22 297.68 69.31 286.00 58.00
C 263.36 88.52 238.19 117.80 217.00 149.00 Z"/>
</g>
<g fill="#BB7423" fill-opacity="0.40" stroke="None">
<path d="
M 439.00 61.00 
C 440.84 61.57 441.93 60.19 443.00 60.00
C 442.17 59.90 441.34 59.06 441.00 59.00
C 440.93 59.05 436.47 60.21 439.00 61.00 Z"/>
</g>
<g fill="#EA9C49" fill-opacity="0.90" stroke="None">
<path d="
M 194.00 61.00 
C 192.77 61.48 190.34 61.00 189.00 61.00
C 183.06 61.00 177.75 60.22 172.00 60.00
C 168.70 60.19 164.00 61.00 160.00 61.00
C 152.00 61.00 144.00 61.00 136.00 61.00
C 127.48 61.00 118.12 61.85 110.00 60.00
C 113.21 61.90 122.24 62.65 129.00 62.00 C 135.76 61.35 144.36 62.73 151.00 62.00 C 157.64 61.27 166.94 63.30 173.00 62.00 C 179.06 60.70 189.99 65.21 194.00 61.00 Z"/>
</g>
<g fill="#FF8A3B" fill-opacity="0.02" stroke="None">
<path d="
M 136.00 61.00 
C 144.00 61.00 152.00 61.00 160.00 61.00
C 159.96 61.00 160.00 60.00 160.00 60.00
C 151.97 60.00 143.33 60.29 136.00 61.00 Z"/>
</g>
<g fill="#D3AA55" fill-opacity="0.02" stroke="None">
<path d="
M 160.00 61.00 
C 164.00 61.00 168.70 60.19 172.00 60.00
C 168.01 59.85 163.99 60.00 160.00 60.00
C 160.00 60.00 159.96 61.00 160.00 61.00 Z"/>
</g>
<g fill="#E99D45" fill-opacity="0.53" stroke="None">
<path d="
M 439.00 61.00 
C 442.83 65.18 454.16 60.62 460.00 62.00 C 465.84 63.38 474.58 61.17 481.00 62.00 C 487.42 62.83 495.40 61.16 502.00 62.00 C 508.60 62.84 516.52 61.47 521.00 60.00
C 508.26 61.01 494.77 60.21 482.00 60.00 C 469.23 59.79 455.66 61.56 443.00 60.00
C 441.93 60.19 440.84 61.57 439.00 61.00 Z"/>
</g>
<g fill="#E0953C" fill-opacity="0.71" stroke="None">
<path d="
M 98.00 73.00 
C 100.38 74.36 102.81 76.17 106.00 76.00
C 105.96 76.00 106.00 75.00 106.00 75.00
C 103.21 72.93 100.14 73.58 98.00 73.00 Z"/>
</g>
<g fill="#C77A29" fill-opacity="0.99" stroke="None">
<path d="
M 106.00 76.00 
C 109.92 76.35 115.28 74.79 119.00 76.00
C 117.58 75.04 110.27 74.61 106.00 75.00
C 106.00 75.00 105.96 76.00 106.00 76.00 Z"/>
</g>
<g fill="#C87B26" fill-opacity="0.98" stroke="None">
<path d="
M 143.00 77.00 
C 151.72 78.39 163.21 74.42 173.00 76.00 C 182.79 77.58 194.10 74.62 204.00 76.00
C 183.99 73.67 161.83 75.67 141.00 75.00
C 139.83 76.75 142.89 76.80 143.00 77.00 Z"/>
</g>
<g fill="#C77A27" fill-opacity="0.98" stroke="None">
<path d="
M 431.00 76.00 
C 440.69 74.71 451.39 77.56 461.00 76.00 C 470.61 74.44 482.48 78.36 491.00 77.00
C 492.19 77.15 493.51 76.41 493.00 75.00
C 472.99 77.63 450.08 71.05 431.00 76.00 Z"/>
</g>
<g fill="#C77A26" fill-opacity="1.00" stroke="None">
<path d="
M 515.00 76.00 
C 518.71 74.76 524.08 76.40 528.00 76.00
C 524.17 76.02 519.12 73.89 515.00 76.00 Z"/>
</g>
<g fill="#000000" fill-opacity="0.00" stroke="None">
<path d="
M 143.00 77.00 
C 161.64 101.68 197.32 88.06 224.00 91.00
C 219.11 83.69 212.59 78.30 204.00 76.00
C 194.10 74.62 182.79 77.58 173.00 76.00 C 163.21 74.42 151.72 78.39 143.00 77.00 Z"/>
</g>
<g fill="#000000" fill-opacity="0.00" stroke="None">
<path d="
M 491.00 77.00 
C 482.48 78.36 470.61 74.44 461.00 76.00 C 451.39 77.56 440.69 74.71 431.00 76.00
C 422.02 77.73 414.81 83.55 410.00 91.00
C 423.99 93.65 442.94 89.67 457.00 91.00 C 471.06 92.33 483.97 89.81 491.00 77.00 Z"/>
</g>
<g fill="#000000" fill-opacity="0.00" stroke="None">
<path d="
M 263.00 149.00 
L 277.00 149.00
C 285.85 137.35 291.00 127.92 301.70 116.70 C 312.39 105.47 294.01 94.16 289.00 83.00
C 273.78 97.68 261.71 117.18 248.00 134.00
C 257.61 135.26 261.19 123.10 267.23 117.23 C 273.28 111.36 275.60 102.78 283.00 98.00
C 284.43 106.76 297.75 105.60 288.75 115.75 C 279.75 125.90 271.08 138.09 263.00 149.00 Z"/>
</g>
<g fill="#000000" fill-opacity="0.00" stroke="None">
<path d="
M 357.00 149.00 
L 371.00 149.00
C 362.14 135.51 350.60 123.69 342.00 110.00
C 345.05 106.29 347.85 101.94 351.00 98.00
C 358.38 102.74 361.49 111.80 367.25 117.75 C 373.01 123.71 376.45 134.78 386.00 134.00
C 372.78 116.97 360.36 99.06 346.00 83.00
C 339.88 93.63 321.60 105.61 332.25 116.75 C 342.89 127.89 348.36 137.29 357.00 149.00 Z"/>
</g>
<g fill="#CB7935" fill-opacity="0.98" stroke="None">
<path d="
M 156.00 107.00 
C 165.64 108.28 176.31 106.56 186.00 107.00 C 195.69 107.44 206.48 107.12 216.00 107.00 C 225.52 106.88 236.19 109.54 242.00 103.00
C 232.28 110.67 212.76 105.49 200.00 106.00 C 187.24 106.51 168.35 107.46 156.00 107.00 Z"/>
</g>
<g fill="#CA7735" fill-opacity="1.00" stroke="None">
<path d="
M 395.00 107.00 
C 403.40 109.51 414.18 106.08 423.00 107.00 C 431.82 107.92 442.11 107.05 451.00 107.00 C 459.89 106.95 469.23 108.17 478.00 107.00
C 451.57 107.98 421.52 103.35 395.00 107.00 Z"/>
</g>
<g fill="#000000" fill-opacity="0.00" stroke="None">
<path d="
M 295.00 149.00 
L 339.00 149.00
C 331.23 141.10 324.43 131.34 318.00 122.00
C 308.83 128.66 304.30 141.82 295.00 149.00 Z"/>
</g>
</svg>